<svg width="640" height="512" viewBox="0 0 640 512" fill="none" xmlns="http://www.w3.org/2000/svg">
  <defs>
    <linearGradient id="sacredGradient" x1="0%" y1="0%" x2="100%" y2="100%">
      <stop offset="0%" style="stop-color:#FFD700;stop-opacity:1" />
      <stop offset="50%" style="stop-color:#FF8C00;stop-opacity:1" />
      <stop offset="100%" style="stop-color:#4169E1;stop-opacity:1" />
    </linearGradient>
  </defs>
  
  <!-- Background -->
  <rect width="640" height="512" fill="url(#sacredGradient)" opacity="0.3"/>
  <rect x="20" y="20" width="600" height="472" fill="#2d1810" stroke="#FFD700" stroke-width="4" rx="15"/>
  
  <!-- Sacred Pattern -->
  <g opacity="0.2">
    <circle cx="320" cy="256" r="100" fill="none" stroke="#FFD700" stroke-width="2"/>
    <circle cx="320" cy="256" r="150" fill="none" stroke="#FFD700" stroke-width="1"/>
    <circle cx="320" cy="256" r="200" fill="none" stroke="#FFD700" stroke-width="1"/>
  </g>
  
  <!-- Odu Pattern Lines -->
  <g transform="translate(320, 256)">
    <!-- Traditional I/II pattern representation -->
    <rect x="-50" y="-80" width="100" height="8" fill="#FFD700" rx="4"/>
    <rect x="-50" y="-60" width="45" height="8" fill="#FFD700" rx="4"/>
    <rect x="5" y="-60" width="45" height="8" fill="#FFD700" rx="4"/>
    <rect x="-50" y="-40" width="100" height="8" fill="#FFD700" rx="4"/>
    <rect x="-50" y="-20" width="45" height="8" fill="#FFD700" rx="4"/>
    <rect x="5" y="-20" width="45" height="8" fill="#FFD700" rx="4"/>
    <rect x="-50" y="0" width="100" height="8" fill="#FFD700" rx="4"/>
    <rect x="-50" y="20" width="100" height="8" fill="#FFD700" rx="4"/>
    <rect x="-50" y="40" width="45" height="8" fill="#FFD700" rx="4"/>
    <rect x="5" y="40" width="45" height="8" fill="#FFD700" rx="4"/>
    <rect x="-50" y="60" width="100" height="8" fill="#FFD700" rx="4"/>
    <rect x="-50" y="80" width="45" height="8" fill="#FFD700" rx="4"/>
    <rect x="5" y="80" width="45" height="8" fill="#FFD700" rx="4"/>
  </g>
  
  <!-- Title -->
  <text x="320" y="140" text-anchor="middle" fill="#FFD700" font-family="Arial, sans-serif" font-size="28" font-weight="bold">
    Odu Ifá
  </text>
  
  <!-- Subtitle -->
  <text x="320" y="170" text-anchor="middle" fill="#FF8C00" font-family="Arial, sans-serif" font-size="16" font-style="italic">
    Traditional Sacred Pattern
  </text>
  
  <!-- Footer -->
  <text x="320" y="420" text-anchor="middle" fill="#4169E1" font-family="Arial, sans-serif" font-size="14">
    Authentic Yoruba Spiritual Wisdom
  </text>
  
  <!-- Decorative corners -->
  <g opacity="0.6">
    <circle cx="60" cy="60" r="8" fill="#FFD700"/>
    <circle cx="580" cy="60" r="8" fill="#FFD700"/>
    <circle cx="60" cy="452" r="8" fill="#FFD700"/>
    <circle cx="580" cy="452" r="8" fill="#FFD700"/>
  </g>
</svg>